<svg width="1200" height="954" viewBox="0 0 1200 954" fill="none" xmlns="http://www.w3.org/2000/svg">
<rect width="1200" height="954" fill="#E9E9E9"/>
<rect x="50" y="55" width="1100" height="659" fill="#212525" fill-opacity="0.1"/>
<rect x="50.5" y="55.5" width="1099" height="658" stroke="#212525" stroke-opacity="0.8"/>
<rect x="233.5" y="269.5" width="414" height="110" fill="#212525" fill-opacity="0.1" stroke="#212525"/>
<rect x="50" y="742" width="1100" height="150" fill="#212525" fill-opacity="0.1"/>
<rect x="50.5" y="742.5" width="1099" height="149" stroke="#212525" stroke-opacity="0.8"/>
<path d="M86.72 121C86.72 113.04 89.88 108.56 95.84 108.56C100.68 108.56 103.4 111.36 104.08 116.48L101.4 117.12C100.6 112.88 99.04 111.08 95.8 111.08C91.24 111.08 89.6 114.72 89.6 121C89.6 127.44 91.28 130.96 95.72 130.96C99.32 130.96 100.8 129.08 101.6 124.76L104.32 125.36C103.56 130.56 100.92 133.44 95.68 133.44C89.6 133.44 86.72 128.96 86.72 121ZM112.278 133V109H120.638C125.998 109 128.838 112.12 128.838 116.76C128.838 121.16 125.958 124.48 120.718 124.48H115.198V133H112.278ZM115.198 122.16H120.398C124.358 122.16 126.038 120 126.038 116.8C126.038 113.6 124.598 111.44 120.358 111.44H115.198V122.16ZM143.317 133.44C137.957 133.44 135.157 130.2 135.157 124.08V109H138.037V123.84C138.037 127.92 139.157 130.96 143.317 130.96C147.277 130.96 148.557 128.44 148.557 124.04V109H151.437V124.08C151.437 130.2 148.637 133.44 143.317 133.44Z" fill="#212525"/>
<rect x="233.5" y="554.5" width="874" height="125" fill="#212525" fill-opacity="0.1" stroke="#212525"/>
<path d="M1108 617L233 617" stroke="#212525" stroke-linejoin="round" stroke-dasharray="12 12"/>
<path d="M323.176 333.4C323.176 327.032 325.704 323.448 330.472 323.448C334.344 323.448 336.52 325.688 337.064 329.784L334.92 330.296C334.28 326.904 333.032 325.464 330.44 325.464C326.792 325.464 325.48 328.376 325.48 333.4C325.48 338.552 326.824 341.368 330.376 341.368C333.256 341.368 334.44 339.864 335.08 336.408L337.256 336.888C336.648 341.048 334.536 343.352 330.344 343.352C325.48 343.352 323.176 339.768 323.176 333.4ZM349.415 343.352C345.127 343.352 342.887 340.76 342.887 335.864V323.8H345.191V335.672C345.191 338.936 346.087 341.368 349.415 341.368C352.583 341.368 353.607 339.352 353.607 335.832V323.8H355.911V335.864C355.911 340.76 353.671 343.352 349.415 343.352ZM362.245 343V323.8H368.134C373.253 323.8 375.59 326.776 375.59 333.304C375.59 339.704 372.646 343 368.134 343H362.245ZM364.581 341.048H367.974C371.877 341.048 373.286 338.04 373.286 333.304C373.286 327.768 371.75 325.752 367.845 325.752H364.581V341.048ZM379.524 343L385.7 323.8H389.252L395.428 343H392.996L391.3 337.432H383.588L381.892 343H379.524ZM384.132 335.544H390.724L389.956 333.016C389.22 330.68 388.516 327.832 388.068 325.752H386.884C386.34 327.864 385.604 330.648 384.9 333.016L384.132 335.544ZM420.546 343V323.8H422.882V340.984H432.802V343H420.546ZM437.92 343V341.176H443.904V329.944H438.208V328.12H446.08V341.176H451.264V343H437.92ZM442.912 324.376V322.008H446.272V324.376H442.912ZM470.943 335.608C470.943 340.44 468.479 343.352 465.375 343.352C463.007 343.352 461.023 341.656 460.095 339.48H459.743V343H457.535V321.56H459.743V331.608H460.063C460.895 329.464 462.527 327.768 465.215 327.768C468.511 327.768 470.943 330.744 470.943 335.608ZM459.743 334.584V336.664C459.743 339.416 461.599 341.432 464.255 341.432C467.103 341.432 468.767 339.32 468.767 335.608C468.767 331.832 467.071 329.784 464.287 329.784C461.567 329.784 459.743 331.8 459.743 334.584ZM477.374 343V328.12H479.422V332.472L479.678 332.504C480.734 329.56 482.942 327.8 485.694 327.8C487.134 327.8 488.35 328.184 489.79 328.952L489.214 330.968C487.902 330.232 486.558 329.816 485.342 329.816C481.886 329.816 479.582 332.088 479.582 335.704V343H477.374ZM499.645 343.32C496.829 343.32 494.877 341.752 494.877 339.192C494.877 336.76 496.573 335 500.189 335H505.341V333.208C505.341 331.192 504.285 329.592 501.693 329.592C499.549 329.592 498.173 330.808 497.565 332.312L495.549 331.544C496.381 329.464 498.621 327.768 501.757 327.768C505.597 327.768 507.549 329.944 507.549 333.176V343H505.565V339.736H505.117C504.221 341.816 502.365 343.32 499.645 343.32ZM505.341 336.408H500.541C498.205 336.408 496.957 337.336 496.957 339.096C496.957 340.376 498.077 341.528 500.349 341.528C503.261 341.528 505.341 339.832 505.341 337.528V336.408ZM515.451 343V328.12H517.499V332.472L517.755 332.504C518.811 329.56 521.019 327.8 523.771 327.8C525.211 327.8 526.427 328.184 527.867 328.952L527.291 330.968C525.979 330.232 524.635 329.816 523.419 329.816C519.963 329.816 517.659 332.088 517.659 335.704V343H515.451ZM533.114 343V341.176H539.098V329.944H533.402V328.12H541.274V341.176H546.458V343H533.114ZM538.106 324.376V322.008H541.466V324.376H538.106ZM559.161 343.352C554.649 343.352 552.089 340.504 552.089 335.608C552.089 330.68 554.969 327.768 559.161 327.768C563.257 327.768 565.529 330.424 565.529 334.488C565.529 334.84 565.497 335.48 565.433 336.024H554.297C554.425 339.512 555.961 341.528 559.129 341.528C561.721 341.528 562.969 340.088 563.481 338.424L565.401 338.904C564.697 341.56 562.617 343.352 559.161 343.352ZM554.329 334.456H563.481C563.385 331.288 562.009 329.496 559.097 329.496C556.313 329.496 554.649 331.16 554.329 334.456ZM578.104 343.384C574.008 343.384 571.928 341.56 571.224 338.712L573.304 338.296C573.816 340.184 575.224 341.624 578.136 341.624C580.568 341.624 582.168 340.824 582.168 339.128C582.168 337.272 580.184 336.792 577.784 336.376C574.776 335.896 572.088 335.096 572.088 332.056C572.088 329.56 574.008 327.768 577.912 327.768C581.848 327.768 583.192 329.464 583.864 331.8L581.816 332.216C581.272 330.136 579.96 329.464 577.848 329.464C575.416 329.464 574.232 330.36 574.232 331.896C574.232 333.752 576.152 334.2 578.456 334.584C581.72 335.096 584.376 335.832 584.376 339.032C584.376 341.464 582.424 343.384 578.104 343.384Z" fill="#212525"/>
<rect x="233.5" y="404.5" width="604" height="125" fill="#212525" fill-opacity="0.1" stroke="#212525"/>
<path d="M391.176 474.4C391.176 468.032 393.704 464.448 398.472 464.448C402.344 464.448 404.52 466.688 405.064 470.784L402.92 471.296C402.28 467.904 401.032 466.464 398.44 466.464C394.792 466.464 393.48 469.376 393.48 474.4C393.48 479.552 394.824 482.368 398.376 482.368C401.256 482.368 402.44 480.864 403.08 477.408L405.256 477.888C404.648 482.048 402.536 484.352 398.344 484.352C393.48 484.352 391.176 480.768 391.176 474.4ZM417.415 484.352C413.127 484.352 410.887 481.76 410.887 476.864V464.8H413.191V476.672C413.191 479.936 414.087 482.368 417.415 482.368C420.583 482.368 421.607 480.352 421.607 476.832V464.8H423.911V476.864C423.911 481.76 421.671 484.352 417.415 484.352ZM430.245 484V464.8H436.134C441.253 464.8 443.59 467.776 443.59 474.304C443.59 480.704 440.646 484 436.134 484H430.245ZM432.581 482.048H435.974C439.877 482.048 441.286 479.04 441.286 474.304C441.286 468.768 439.75 466.752 435.845 466.752H432.581V482.048ZM447.524 484L453.7 464.8H457.252L463.428 484H460.996L459.3 478.432H451.588L449.892 484H447.524ZM452.132 476.544H458.724L457.956 474.016C457.22 471.68 456.516 468.832 456.068 466.752H454.884C454.34 468.864 453.604 471.648 452.9 474.016L452.132 476.544ZM487.682 484V464.8H493.986C498.306 464.8 500.162 466.816 500.162 470.464C500.162 473.408 498.786 475.392 496.258 476.128L500.994 483.36V484H498.466L493.922 476.416H489.986V484H487.682ZM489.986 474.528H493.762C496.418 474.528 497.858 473.216 497.858 470.496C497.858 467.872 496.834 466.72 493.73 466.72H489.986V474.528ZM506.56 479.232V469.12H508.736V478.784C508.736 481.056 509.536 482.336 511.616 482.336C514.336 482.336 516.32 480.224 516.32 477.408V469.12H518.496V484H516.416V480.32H516C515.104 482.528 513.184 484.352 510.752 484.352C508.128 484.352 506.56 482.56 506.56 479.232ZM525.727 484V469.12H527.807V472.8H528.223C529.119 470.624 531.039 468.768 533.471 468.768C536.127 468.768 537.695 470.56 537.695 473.888V484H535.487V474.368C535.487 472.064 534.751 470.784 532.671 470.784C529.887 470.784 527.935 472.896 527.935 475.712V484H525.727ZM547.294 478.624V470.944H543.422V469.12H547.294V464.8H549.47V469.12H557.15V470.944H549.47V478.272C549.47 481.024 550.558 482.432 553.246 482.432C554.366 482.432 555.486 482.208 556.99 481.504L557.47 483.264C555.806 484 554.398 484.352 552.83 484.352C548.99 484.352 547.294 481.984 547.294 478.624ZM563.037 484V482.176H569.021V470.944H563.325V469.12H571.197V482.176H576.381V484H563.037ZM568.029 465.376V463.008H571.389V465.376H568.029ZM581.947 484V469.12H583.707V471.392H583.995C584.475 469.76 585.531 468.832 586.971 468.832C588.379 468.832 589.275 469.696 589.499 471.392H589.819C590.299 469.888 591.291 468.832 592.827 468.832C594.555 468.832 595.675 470.112 595.675 472.32V484H593.691V472.864C593.691 471.616 593.115 470.752 591.963 470.752C590.619 470.752 589.787 471.712 589.787 473.664V484H587.835V472.864C587.835 471.488 587.227 470.752 586.107 470.752C584.891 470.752 583.931 471.776 583.931 473.472V484H581.947ZM608.122 484.352C603.61 484.352 601.05 481.504 601.05 476.608C601.05 471.68 603.93 468.768 608.122 468.768C612.218 468.768 614.49 471.424 614.49 475.488C614.49 475.84 614.458 476.48 614.394 477.024H603.258C603.386 480.512 604.922 482.528 608.09 482.528C610.682 482.528 611.93 481.088 612.442 479.424L614.362 479.904C613.658 482.56 611.578 484.352 608.122 484.352ZM603.29 475.456H612.442C612.346 472.288 610.97 470.496 608.058 470.496C605.274 470.496 603.61 472.16 603.29 475.456ZM637.912 484L644.088 464.8H647.64L653.816 484H651.384L649.688 478.432H641.976L640.28 484H637.912ZM642.52 476.544H649.112L648.344 474.016C647.608 471.68 646.904 468.832 646.456 466.752H645.272C644.728 468.864 643.992 471.648 643.288 474.016L642.52 476.544ZM659.127 484V464.8H665.815C670.103 464.8 672.375 467.296 672.375 471.008C672.375 474.528 670.071 477.184 665.879 477.184H661.463V484H659.127ZM661.463 475.328H665.623C668.791 475.328 670.135 473.6 670.135 471.04C670.135 468.48 668.983 466.752 665.591 466.752H661.463V475.328ZM677.653 466.752V464.8H690.229V466.752H685.109V482.048H690.229V484H677.653V482.048H682.805V466.752H677.653Z" fill="#212525"/>
<path d="M674 242V241.5H673.5H233.5V94.5H1107.5V529H862.5V380V379.5H862H674V242Z" fill="#212525" fill-opacity="0.2" stroke="#212525"/>
<path d="M547.102 584.6C547.102 579.028 549.314 575.892 553.486 575.892C556.874 575.892 558.778 577.852 559.254 581.436L557.378 581.884C556.818 578.916 555.726 577.656 553.458 577.656C550.266 577.656 549.118 580.204 549.118 584.6C549.118 589.108 550.294 591.572 553.402 591.572C555.922 591.572 556.958 590.256 557.518 587.232L559.422 587.652C558.89 591.292 557.042 593.308 553.374 593.308C549.118 593.308 547.102 590.172 547.102 584.6ZM570.061 593.308C566.309 593.308 564.349 591.04 564.349 586.756V576.2H566.365V586.588C566.365 589.444 567.149 591.572 570.061 591.572C572.833 591.572 573.729 589.808 573.729 586.728V576.2H575.745V586.756C575.745 591.04 573.785 593.308 570.061 593.308ZM581.288 593V576.2H586.44C590.92 576.2 592.964 578.804 592.964 584.516C592.964 590.116 590.388 593 586.44 593H581.288ZM583.332 591.292H586.3C589.716 591.292 590.948 588.66 590.948 584.516C590.948 579.672 589.604 577.908 586.188 577.908H583.332V591.292ZM596.407 593L601.811 576.2H604.919L610.323 593H608.195L606.711 588.128H599.963L598.479 593H596.407ZM600.439 586.476H606.207L605.535 584.264C604.891 582.22 604.275 579.728 603.883 577.908H602.847C602.371 579.756 601.727 582.192 601.111 584.264L600.439 586.476ZM631.265 593V576.2H636.417C640.897 576.2 642.941 578.804 642.941 584.516C642.941 590.116 640.365 593 636.417 593H631.265ZM633.309 591.292H636.277C639.693 591.292 640.925 588.66 640.925 584.516C640.925 579.672 639.581 577.908 636.165 577.908H633.309V591.292ZM648.708 593V579.98H650.5V583.788L650.724 583.816C651.648 581.24 653.58 579.7 655.988 579.7C657.248 579.7 658.312 580.036 659.572 580.708L659.068 582.472C657.92 581.828 656.744 581.464 655.68 581.464C652.656 581.464 650.64 583.452 650.64 586.616V593H648.708ZM664.163 593V591.404H669.399V581.576H664.415V579.98H671.303V591.404H675.839V593H664.163ZM668.531 576.704V574.632H671.471V576.704H668.531ZM685.357 593L680.121 579.98H682.165L683.957 584.908C684.741 587.12 685.525 589.08 686.197 591.376H687.065C687.737 589.192 688.605 587.092 689.361 584.964L691.153 579.98H693.197L687.933 593H685.357ZM703.612 593.308C699.664 593.308 697.424 590.816 697.424 586.532C697.424 582.22 699.944 579.672 703.612 579.672C707.196 579.672 709.184 581.996 709.184 585.552C709.184 585.86 709.156 586.42 709.1 586.896H699.356C699.468 589.948 700.812 591.712 703.584 591.712C705.852 591.712 706.944 590.452 707.392 588.996L709.072 589.416C708.456 591.74 706.636 593.308 703.612 593.308ZM699.384 585.524H707.392C707.308 582.752 706.104 581.184 703.556 581.184C701.12 581.184 699.664 582.64 699.384 585.524ZM715.343 593V579.98H717.135V583.788L717.359 583.816C718.283 581.24 720.215 579.7 722.623 579.7C723.883 579.7 724.947 580.036 726.207 580.708L725.703 582.472C724.555 581.828 723.379 581.464 722.315 581.464C719.291 581.464 717.275 583.452 717.275 586.616V593H715.343ZM746.337 593L751.741 576.2H754.849L760.253 593H758.125L756.641 588.128H749.893L748.409 593H746.337ZM750.369 586.476H756.137L755.465 584.264C754.821 582.22 754.205 579.728 753.813 577.908H752.777C752.301 579.756 751.657 582.192 751.041 584.264L750.369 586.476ZM764.9 593V576.2H770.752C774.504 576.2 776.492 578.384 776.492 581.632C776.492 584.712 774.476 587.036 770.808 587.036H766.944V593H764.9ZM766.944 585.412H770.584C773.356 585.412 774.532 583.9 774.532 581.66C774.532 579.42 773.524 577.908 770.556 577.908H766.944V585.412ZM781.111 577.908V576.2H792.115V577.908H787.635V591.292H792.115V593H781.111V591.292H785.619V577.908H781.111Z" fill="#212525"/>
<path d="M531.727 660V643.2H534.611L538.251 651.096C539.315 653.504 540.239 656.332 540.715 658.208L541.303 658.18C541.051 655.548 540.771 651.264 540.771 647.988V643.2H542.731V660H539.959L535.927 651.012C535.115 649.136 534.359 646.84 533.799 644.908L533.239 644.936C533.463 647.764 533.687 652.048 533.687 655.212V660H531.727ZM546.93 643.2H549.086L551.746 651.936C552.362 653.952 553.006 656.416 553.398 658.236H554.406C554.854 656.388 555.498 653.952 556.114 651.936L558.774 643.2H560.846L555.414 660H552.362L546.93 643.2ZM565.045 644.908V643.2H576.049V644.908H571.569V658.292H576.049V660H565.045V658.292H569.553V644.908H565.045ZM581.788 660V643.2H586.94C591.42 643.2 593.464 645.804 593.464 651.516C593.464 657.116 590.888 660 586.94 660H581.788ZM583.832 658.292H586.8C590.216 658.292 591.448 655.66 591.448 651.516C591.448 646.672 590.104 644.908 586.688 644.908H583.832V658.292ZM598.363 644.908V643.2H609.367V644.908H604.887V658.292H609.367V660H598.363V658.292H602.871V644.908H598.363ZM613.566 660L618.97 643.2H622.078L627.482 660H625.354L623.87 655.128H617.122L615.638 660H613.566ZM617.598 653.476H623.366L622.694 651.264C622.05 649.22 621.434 646.728 621.042 644.908H620.006C619.53 646.756 618.886 649.192 618.27 651.264L617.598 653.476ZM653.072 660.28C649.936 660.28 647.5 658.152 647.5 651.796C647.5 646.14 649.572 642.892 653.8 642.892C657.244 642.892 658.952 644.852 659.54 648.408L657.636 648.856C657.104 645.916 656.068 644.656 653.856 644.656C650.636 644.656 649.516 647.204 649.516 651.796C649.516 656.444 650.776 658.6 653.772 658.6C657.076 658.6 657.888 656.024 657.916 653.28H654.024V651.628H659.82V660H657.972V656.36H657.636C656.936 658.488 655.648 660.28 653.072 660.28ZM665.447 660V643.2H671.299C675.051 643.2 677.039 645.384 677.039 648.632C677.039 651.712 675.023 654.036 671.355 654.036H667.491V660H665.447ZM667.491 652.412H671.131C673.903 652.412 675.079 650.9 675.079 648.66C675.079 646.42 674.071 644.908 671.103 644.908H667.491V652.412ZM687.173 660.308C683.421 660.308 681.461 658.04 681.461 653.756V643.2H683.477V653.588C683.477 656.444 684.261 658.572 687.173 658.572C689.945 658.572 690.841 656.808 690.841 653.728V643.2H692.857V653.756C692.857 658.04 690.897 660.308 687.173 660.308ZM715.059 660V643.2H720.211C724.691 643.2 726.735 645.804 726.735 651.516C726.735 657.116 724.159 660 720.211 660H715.059ZM717.103 658.292H720.071C723.487 658.292 724.719 655.66 724.719 651.516C724.719 646.672 723.375 644.908 719.959 644.908H717.103V658.292ZM732.502 660V646.98H734.294V650.788L734.518 650.816C735.442 648.24 737.374 646.7 739.782 646.7C741.042 646.7 742.106 647.036 743.366 647.708L742.862 649.472C741.714 648.828 740.538 648.464 739.474 648.464C736.45 648.464 734.434 650.452 734.434 653.616V660H732.502ZM747.957 660V658.404H753.193V648.576H748.209V646.98H755.097V658.404H759.633V660H747.957ZM752.325 643.704V641.632H755.265V643.704H752.325ZM769.152 660L763.916 646.98H765.96L767.752 651.908C768.536 654.12 769.32 656.08 769.992 658.376H770.86C771.532 656.192 772.4 654.092 773.156 651.964L774.948 646.98H776.992L771.728 660H769.152ZM787.407 660.308C783.459 660.308 781.219 657.816 781.219 653.532C781.219 649.22 783.739 646.672 787.407 646.672C790.991 646.672 792.979 648.996 792.979 652.552C792.979 652.86 792.951 653.42 792.895 653.896H783.151C783.263 656.948 784.607 658.712 787.379 658.712C789.647 658.712 790.739 657.452 791.187 655.996L792.867 656.416C792.251 658.74 790.431 660.308 787.407 660.308ZM783.179 652.524H791.187C791.103 649.752 789.899 648.184 787.351 648.184C784.915 648.184 783.459 649.64 783.179 652.524ZM799.138 660V646.98H800.93V650.788L801.154 650.816C802.078 648.24 804.01 646.7 806.418 646.7C807.678 646.7 808.742 647.036 810.002 647.708L809.498 649.472C808.35 648.828 807.174 648.464 806.11 648.464C803.086 648.464 801.07 650.452 801.07 653.616V660H799.138Z" fill="#212525"/>
<path d="M94.6 812.4C90.12 812.4 86.64 809.36 86.64 800.28C86.64 792.2 89.6 787.56 95.64 787.56C100.56 787.56 103 790.36 103.84 795.44L101.12 796.08C100.36 791.88 98.88 790.08 95.72 790.08C91.12 790.08 89.52 793.72 89.52 800.28C89.52 806.92 91.32 810 95.6 810C100.32 810 101.48 806.32 101.52 802.4H95.96V800.04H104.24V812H101.6V806.8H101.12C100.12 809.84 98.28 812.4 94.6 812.4ZM112.278 812V788H120.638C125.998 788 128.838 791.12 128.838 795.76C128.838 800.16 125.958 803.48 120.718 803.48H115.198V812H112.278ZM115.198 801.16H120.398C124.358 801.16 126.038 799 126.038 795.8C126.038 792.6 124.598 790.44 120.358 790.44H115.198V801.16ZM143.317 812.44C137.957 812.44 135.157 809.2 135.157 803.08V788H138.037V802.84C138.037 806.92 139.157 809.96 143.317 809.96C147.277 809.96 148.557 807.44 148.557 803.04V788H151.437V803.08C151.437 809.2 148.637 812.44 143.317 812.44Z" fill="#212525"/>
<path d="M548.408 173L554.584 153.8H558.136L564.312 173H561.88L560.184 167.432H552.472L550.776 173H548.408ZM553.016 165.544H559.608L558.84 163.016C558.104 160.68 557.4 157.832 556.952 155.752H555.768C555.224 157.864 554.488 160.648 553.784 163.016L553.016 165.544ZM582.711 165.608C582.711 170.44 580.311 173.352 577.143 173.352C574.711 173.352 572.759 171.656 571.863 169.48H571.511V178.344H569.303V158.12H571.511V161.608H571.831C572.663 159.464 574.263 157.768 576.983 157.768C580.343 157.768 582.711 160.744 582.711 165.608ZM571.511 166.664C571.511 169.416 573.367 171.432 576.023 171.432C578.839 171.432 580.535 169.384 580.535 165.608C580.535 161.768 578.807 159.784 576.055 159.784C573.367 159.784 571.511 161.8 571.511 164.584V166.664ZM601.75 165.608C601.75 170.44 599.349 173.352 596.181 173.352C593.75 173.352 591.797 171.656 590.901 169.48H590.549V178.344H588.341V158.12H590.549V161.608H590.869C591.701 159.464 593.301 157.768 596.021 157.768C599.382 157.768 601.75 160.744 601.75 165.608ZM590.549 166.664C590.549 169.416 592.405 171.432 595.061 171.432C597.877 171.432 599.573 169.384 599.573 165.608C599.573 161.768 597.845 159.784 595.094 159.784C592.405 159.784 590.549 161.8 590.549 164.584V166.664ZM606.804 173V171.176H612.628V153.384H607.092V151.56H614.836V171.176H620.148V173H606.804ZM625.843 173V171.176H631.827V159.944H626.131V158.12H634.003V171.176H639.187V173H625.843ZM630.835 154.376V152.008H634.195V154.376H630.835ZM644.722 165.608C644.722 160.68 647.41 157.768 651.826 157.768C655.442 157.768 657.618 159.496 658.258 162.792L656.242 163.272C655.73 161 654.45 159.624 651.762 159.624C648.594 159.624 646.93 161.672 646.93 165.576C646.93 169.16 648.466 171.496 651.858 171.496C654.482 171.496 655.826 169.8 656.338 167.848L658.322 168.488C657.618 171.592 655.282 173.352 651.858 173.352C647.218 173.352 644.722 170.472 644.722 165.608ZM668.528 173.32C665.712 173.32 663.76 171.752 663.76 169.192C663.76 166.76 665.456 165 669.072 165H674.224V163.208C674.224 161.192 673.168 159.592 670.576 159.592C668.432 159.592 667.056 160.808 666.448 162.312L664.432 161.544C665.264 159.464 667.504 157.768 670.64 157.768C674.48 157.768 676.432 159.944 676.432 163.176V173H674.448V169.736H674C673.104 171.816 671.248 173.32 668.528 173.32ZM674.224 166.408H669.424C667.088 166.408 665.84 167.336 665.84 169.096C665.84 170.376 666.96 171.528 669.232 171.528C672.144 171.528 674.224 169.832 674.224 167.528V166.408ZM686.255 167.624V159.944H682.383V158.12H686.255V153.8H688.431V158.12H696.111V159.944H688.431V167.272C688.431 170.024 689.519 171.432 692.207 171.432C693.327 171.432 694.447 171.208 695.951 170.504L696.431 172.264C694.767 173 693.359 173.352 691.791 173.352C687.951 173.352 686.255 170.984 686.255 167.624ZM701.998 173V171.176H707.982V159.944H702.286V158.12H710.158V171.176H715.342V173H701.998ZM706.99 154.376V152.008H710.35V154.376H706.99ZM720.621 165.512C720.621 161 723.405 157.768 727.725 157.768C732.013 157.768 734.797 161 734.797 165.512C734.797 169.992 732.301 173.352 727.725 173.352C723.117 173.352 720.621 169.992 720.621 165.512ZM722.829 165.48C722.829 168.776 724.301 171.496 727.693 171.496C731.085 171.496 732.589 168.776 732.589 165.48C732.589 162.152 730.989 159.624 727.725 159.624C724.461 159.624 722.829 162.152 722.829 165.48ZM740.843 173V158.12H742.923V161.8H743.339C744.235 159.624 746.155 157.768 748.587 157.768C751.243 157.768 752.811 159.56 752.811 162.888V173H750.603V163.368C750.603 161.064 749.867 159.784 747.787 159.784C745.003 159.784 743.051 161.896 743.051 164.712V173H740.843ZM766.026 173.384C761.93 173.384 759.85 171.56 759.146 168.712L761.226 168.296C761.738 170.184 763.146 171.624 766.058 171.624C768.49 171.624 770.09 170.824 770.09 169.128C770.09 167.272 768.106 166.792 765.706 166.376C762.698 165.896 760.01 165.096 760.01 162.056C760.01 159.56 761.93 157.768 765.834 157.768C769.77 157.768 771.114 159.464 771.786 161.8L769.738 162.216C769.194 160.136 767.882 159.464 765.77 159.464C763.338 159.464 762.154 160.36 762.154 161.896C762.154 163.752 764.074 164.2 766.378 164.584C769.642 165.096 772.298 165.832 772.298 169.032C772.298 171.464 770.346 173.384 766.026 173.384Z" fill="#212525"/>
<path d="M441 287L446.774 277H435.226L441 287ZM440 242V278H442V242H440Z" fill="#B1259C"/>
<path d="M441 424L446.774 414H435.226L441 424ZM440 379V415H442V379H440Z" fill="#B1259C"/>
<path d="M441 575L446.774 565H435.226L441 575ZM440 530V566H442V530H440Z" fill="#B1259C"/>
<path d="M758 425L763.774 415H752.226L758 425ZM757 380V416H759V380H757Z" fill="#B1259C"/>
<path d="M979 574L984.774 564H973.226L979 574ZM978 529V565H980V529H978Z" fill="#B1259C"/>
<path d="M670 773L675.774 763H664.226L670 773ZM669 680V764H671V680H669Z" fill="#B1259C"/>
</svg>
